<svg xmlns="http://www.w3.org/2000/svg"
     viewBox="0 0 32 32"
     width="32"
     height="32">
  <path fill="#25D366"
        d="M16.01 2.67C8.65 2.67 2.67 8.64 2.67 16c0 2.35.62 4.64 1.78 6.68L2.5 29.33l6.83-1.79a13.3 13.3 0 006.68 1.79c7.36 0 13.34-5.97 13.34-13.33 0-7.36-5.98-13.33-13.34-13.33z"/>
  <path fill="#ffffff"
        d="M22.09 19.58c-.28-.14-1.65-.81-1.9-.9-.25-.09-.43-.14-.62.14-.19.28-.72.9-.88 1.08-.16.19-.33.21-.61.07-.28-.14-1.18-.43-2.25-1.38-.83-.74-1.39-1.65-1.55-1.93-.16-.28-.02-.43.12-.57.14-.14.28-.33.42-.5.14-.16.19-.28.28-.47.09-.19.05-.36-.02-.5-.07-.14-.62-1.53-.86-2.09-.23-.55-.46-.47-.62-.48h-.54c-.19 0-.5.07-.76.36-.26.28-.99.97-.99 2.38 0 1.41 1.01 2.77 1.16 2.96.14.19 1.99 3.04 4.82 4.25.67.29 1.19.47 1.6.6.67.21 1.29.18 1.78.11.53-.08 1.65-.67 1.89-1.32.24-.64.24-1.2.17-1.32-.07-.12-.26-.19-.54-.33z"/>
</svg>
